<?xml version="1.0" encoding="UTF-8"?>
<!DOCTYPE svg PUBLIC "-//W3C//DTD SVG 1.1//EN" "http://www.w3.org/Graphics/SVG/1.1/DTD/svg11.dtd">
<svg xmlns="http://www.w3.org/2000/svg" version="1.1" width="1596px" height="1572px" style="shape-rendering:geometricPrecision; text-rendering:geometricPrecision; image-rendering:optimizeQuality; fill-rule:evenodd; clip-rule:evenodd" xmlns:xlink="http://www.w3.org/1999/xlink">
<g><path style="opacity:0.992" fill="#eae2d0" d="M 794.5,332.5 C 796.624,333.031 798.124,334.365 799,336.5C 871.167,462.167 943.333,587.833 1015.5,713.5C 868.502,714.5 721.502,714.833 574.5,714.5C 574.491,712.692 574.991,711.025 576,709.5C 649.362,584.106 722.195,458.439 794.5,332.5 Z"/></g>
<g><path style="opacity:0.99" fill="#eae2d0" d="M 293.5,578.5 C 416.605,644.221 539.605,710.221 662.5,776.5C 662.833,777.167 663.167,777.833 663.5,778.5C 592.434,898.961 521.101,1019.29 449.5,1139.5C 396.419,952.847 344.419,765.847 293.5,578.5 Z"/></g>
<g><path style="opacity:0.99" fill="#eae2d0" d="M 1295.5,578.5 C 1296.59,578.62 1297.25,579.287 1297.5,580.5C 1245.96,766.993 1193.96,953.326 1141.5,1139.5C 1069.43,1019.43 997.766,899.093 926.5,778.5C 926.833,777.833 927.167,777.167 927.5,776.5C 1050.46,710.837 1173.12,644.837 1295.5,578.5 Z"/></g>
</svg>
