<?xml version="1.0" encoding="UTF-8"?>
<!DOCTYPE svg PUBLIC "-//W3C//DTD SVG 1.1//EN" "http://www.w3.org/Graphics/SVG/1.1/DTD/svg11.dtd">
<svg xmlns="http://www.w3.org/2000/svg" version="1.1" width="1366px" height="256px" style="shape-rendering:geometricPrecision; text-rendering:geometricPrecision; image-rendering:optimizeQuality; fill-rule:evenodd; clip-rule:evenodd" xmlns:xlink="http://www.w3.org/1999/xlink">
<g><path style="opacity:0.967" fill="#eae2d0" d="M 97.5,45.5 C 108.167,45.5 118.833,45.5 129.5,45.5C 138.562,78.0197 148.229,110.353 158.5,142.5C 172.468,123.363 186.635,104.363 201,85.5C 215.693,104.532 230.027,123.866 244,143.5C 253.511,111.121 263.178,78.7875 273,46.5C 283.418,45.5134 293.918,45.1801 304.5,45.5C 288.768,100.767 272.268,155.767 255,210.5C 237,185.833 219,161.167 201,136.5C 183,161.167 165,185.833 147,210.5C 129.732,155.767 113.232,100.767 97.5,45.5 Z"/></g>
<g><path style="opacity:0.972" fill="#eae2d0" d="M 1151.5,45.5 C 1178.84,45.3334 1206.17,45.5 1233.5,46C 1257.07,52.0691 1269.41,67.2357 1270.5,91.5C 1260.48,91.8319 1250.48,91.4985 1240.5,90.5C 1239.38,82.2091 1234.71,77.3758 1226.5,76C 1203.5,75.3333 1180.5,75.3333 1157.5,76C 1145.42,79.9871 1141.92,87.8204 1147,99.5C 1148.94,102.106 1151.44,103.939 1154.5,105C 1179.53,105.08 1204.53,105.747 1229.5,107C 1251.98,113.125 1265.48,127.625 1270,150.5C 1272.63,176.741 1262.13,195.575 1238.5,207C 1235.23,208.202 1231.89,209.202 1228.5,210C 1204.5,210.667 1180.5,210.667 1156.5,210C 1129.29,203.074 1115.29,185.574 1114.5,157.5C 1124.5,157.5 1134.5,157.5 1144.5,157.5C 1145.01,167.356 1149.68,174.522 1158.5,179C 1169.78,180.122 1181.11,180.622 1192.5,180.5C 1203.57,180.633 1214.57,180.133 1225.5,179C 1240.22,171.299 1243.72,160.132 1236,145.5C 1233.41,142.238 1230.24,139.738 1226.5,138C 1201.88,136.705 1177.22,136.038 1152.5,136C 1132.2,132.364 1119.7,120.531 1115,100.5C 1111.74,71.6486 1123.9,53.3152 1151.5,45.5 Z"/></g>
<g><path style="opacity:0.958" fill="#eae2d0" d="M 342.5,51.5 C 381.5,51.5 420.5,51.5 459.5,51.5C 459.5,60.8333 459.5,70.1667 459.5,79.5C 409.833,79.5 360.167,79.5 310.5,79.5C 315.888,64.1105 326.555,54.7771 342.5,51.5 Z"/></g>
<g><path style="opacity:0.967" fill="#eae2d0" d="M 540.5,51.5 C 544.559,57.9407 548.392,64.6074 552,71.5C 574.039,115.078 596.206,158.578 618.5,202C 607.818,202.832 597.151,202.666 586.5,201.5C 571.333,171.833 556.167,142.167 541,112.5C 525.833,142.167 510.667,171.833 495.5,201.5C 443.837,202.667 392.17,202.833 340.5,202C 325.519,198.182 315.519,189.016 310.5,174.5C 366.177,174.414 421.843,174.581 477.5,175C 498.641,133.885 519.641,92.7181 540.5,51.5 Z"/></g>
<g><path style="opacity:0.971" fill="#eae2d0" d="M 629.5,51.5 C 663.168,51.3333 696.835,51.5 730.5,52C 752.525,56.5276 764.525,70.0276 766.5,92.5C 764.797,114.742 753.13,128.575 731.5,134C 742.911,156.823 754.578,179.49 766.5,202C 755.818,202.832 745.151,202.666 734.5,201.5C 724.667,182.5 714.833,163.5 705,144.5C 700.092,138.796 693.925,135.296 686.5,134C 676.839,133.5 667.172,133.334 657.5,133.5C 657.5,156.5 657.5,179.5 657.5,202.5C 648.167,202.5 638.833,202.5 629.5,202.5C 629.5,152.167 629.5,101.833 629.5,51.5 Z M 657.5,79.5 C 681.169,79.3334 704.836,79.5 728.5,80C 739.614,85.6941 741.28,93.3608 733.5,103C 731.043,104.562 728.376,105.562 725.5,106C 702.836,106.5 680.169,106.667 657.5,106.5C 657.5,97.5 657.5,88.5 657.5,79.5 Z"/></g>
<g><path style="opacity:0.962" fill="#eae2d0" d="M 817.5,51.5 C 856.5,51.5 895.5,51.5 934.5,51.5C 934.5,60.8333 934.5,70.1667 934.5,79.5C 884.832,79.6667 835.166,79.5 785.5,79C 791.592,64.4618 802.258,55.2951 817.5,51.5 Z"/></g>
<g><path style="opacity:0.973" fill="#eae2d0" d="M 958.5,51.5 C 993.868,51.0403 1029.2,51.5403 1064.5,53C 1088.41,61.9759 1097.91,79.1426 1093,104.5C 1087.43,120.237 1076.6,130.237 1060.5,134.5C 1071.71,157.078 1083.04,179.578 1094.5,202C 1083.82,202.832 1073.15,202.666 1062.5,201.5C 1053.26,182.677 1043.76,164.011 1034,145.5C 1029.24,138.703 1022.74,134.87 1014.5,134C 1005.17,133.5 995.839,133.334 986.5,133.5C 986.5,156.5 986.5,179.5 986.5,202.5C 929.832,202.667 873.166,202.5 816.5,202C 801.43,198.768 791.097,189.934 785.5,175.5C 843.168,174.274 900.835,174.274 958.5,175.5C 958.5,134.167 958.5,92.8333 958.5,51.5 Z M 986.5,79.5 C 1009.84,79.3334 1033.17,79.5 1056.5,80C 1065.71,83.5999 1068.55,90.0999 1065,99.5C 1062.51,103.325 1059.01,105.492 1054.5,106C 1031.84,106.5 1009.17,106.667 986.5,106.5C 986.5,97.5 986.5,88.5 986.5,79.5 Z"/></g>
<g><path style="opacity:0.962" fill="#eae2d0" d="M 322.5,112.5 C 363.833,112.5 405.167,112.5 446.5,112.5C 446.5,121.833 446.5,131.167 446.5,140.5C 405.167,140.5 363.833,140.5 322.5,140.5C 322.5,131.167 322.5,121.833 322.5,112.5 Z"/></g>
<g><path style="opacity:0.962" fill="#eae2d0" d="M 798.5,112.5 C 839.833,112.5 881.167,112.5 922.5,112.5C 922.5,121.833 922.5,131.167 922.5,140.5C 881.167,140.5 839.833,140.5 798.5,140.5C 798.5,131.167 798.5,121.833 798.5,112.5 Z"/></g>
</svg>
